# xmcd
#
# Track frame offsets:
#	150
#	12492
#	24022
#	36352
#	50180
#	61292
#	68435
#	78497
#	89802
#	100480
#	114210
#	127467
#	141632
#	153635
#	164495
#	178107
#	190000
#	203340
#	215340
#	227315
#	239837
#	254415
#	267627
#	279380
#	291407
#
# Disc length: 4028
#
# Revision: 1
# Processed by: cddbd v1.5.1PL0 Copyright (c) Steve Scherf et al.
# Submitted via: CDex 1.50
# Normalized: r0:DSETVAR1,TDELIM( - )
#
DISCID=800fba19
DTITLE=Various Artist - The Greatest Yodelling Album Of All Time C.D. 2
DYEAR=1900
DGENRE=Country
TTITLE0=Buddy Williams - Where The White Faced Cattle Roam
TTITLE1=Eddy Arnold and Hugo Winterhalter's Orchestra and Chorus - Cattle Call
TTITLE2=Hank Snow - Little Swiss Maiden
TTITLE3=Paul Brunelle - Le Cowboy Des Montagnes
TTITLE4=Rosalie Allen - Wide Rolling Plains
TTITLE5=Jim Reeves - Waiting For A Train
TTITLE6=Bobbejaan Schoepen - Yodel-Ee, Yodel-Ay
TTITLE7=Ronnie Ronalde - Happy Trails
TTITLE8=Roy Rogers - Little Hula Honey
TTITLE9=Gene Autry - They Cut Down The Old Pine Tree
TTITLE10=Jimmie Rodgers and The Rainbow Ranch Boys - In The Jailhouse Now
TTITLE11=Patsy Montana - I Want To Be A Cowboy's Sweetheart
TTITLE12=Alice Babs - Hilly Billy Willy
TTITLE13=Rex Allen Snr - Nothin' To Do
TTITLE14=Betty Cody - Tom Tom Yodel
TTITLE15=Kenny Roberts - Arizona Yodeller
TTITLE16=The Carter Family - Foggy Mountain Top
TTITLE17=Jesse Rogers - Little Girl Dressed In Blue
TTITLE18=Tim McNamara and The McKean Sisters - Red River Valley
TTITLE19='Texas' Kitty Prins - Just A Little Lovin'
TTITLE20=Harvey Lester and His Hayseeds Featuring 'Goofus' - Bell Bottomed Trousers
TTITLE21=Ernst Ruckstahl - The Herdman's Delight
TTITLE22=Carolina Cotton - Nola
TTITLE23=Bertely Studer - Jodel Perlen
TTITLE24='Whispering' George Payne - The Roaming Yodeller
EXTD=
EXTT0=
EXTT1=
EXTT2=
EXTT3=
EXTT4=
EXTT5=
EXTT6=
EXTT7=
EXTT8=
EXTT9=
EXTT10=
EXTT11=
EXTT12=
EXTT13=
EXTT14=
EXTT15=
EXTT16=
EXTT17=
EXTT18=
EXTT19=
EXTT20=
EXTT21=
EXTT22=
EXTT23=
EXTT24=
PLAYORDER=
